<?xml version="1.0" standalone="no"?>
<!DOCTYPE svg PUBLIC "-//W3C//DTD SVG 20010904//EN"
 "http://www.w3.org/TR/2001/REC-SVG-20010904/DTD/svg10.dtd">
<svg version="1.0" xmlns="http://www.w3.org/2000/svg"
 width="1280.000000pt" height="1280.000000pt" viewBox="0 0 1280.000000 1280.000000"
 preserveAspectRatio="xMidYMid meet">
<g transform="translate(0.000000,1280.000000) scale(0.100000,-0.100000)"
fill="#000000" stroke="none">
<path d="M1990 10721 c-19 -4 -45 -13 -57 -19 -12 -7 -54 -12 -93 -12 -39 0
-86 -6 -104 -14 -29 -12 -37 -23 -53 -73 -19 -62 -19 -61 -138 -115 -42 -19
-50 -28 -53 -53 -2 -24 5 -38 38 -70 62 -61 51 -97 -18 -55 -18 11 -37 20 -44
20 -6 0 -43 -25 -82 -54 -73 -56 -130 -86 -165 -86 -11 0 -36 8 -55 17 -32 15
-45 15 -118 4 -120 -18 -138 -30 -138 -93 0 -46 -28 -68 -87 -68 -67 0 -88
-13 -107 -67 -9 -26 -30 -75 -47 -108 -19 -40 -29 -75 -29 -107 0 -66 7 -78
44 -78 40 0 52 -9 65 -43 8 -22 7 -35 -4 -57 -8 -16 -15 -40 -15 -55 0 -21 5
-25 29 -25 17 0 33 5 36 10 10 16 52 12 59 -6 12 -32 5 -68 -25 -130 -26 -52
-29 -66 -19 -79 18 -21 25 -20 124 30 138 69 156 60 106 -55 -29 -70 -30 -74
-14 -99 28 -44 67 -81 85 -81 10 0 21 -5 24 -10 11 -18 -12 -37 -60 -50 -83
-23 -89 -69 -12 -107 26 -13 47 -27 47 -32 0 -4 -14 -20 -31 -37 -17 -16 -44
-47 -60 -68 -28 -38 -29 -43 -29 -156 0 -105 2 -120 23 -151 42 -62 78 -46
158 68 36 51 56 63 196 108 59 20 132 47 160 62 l53 26 24 -26 c14 -15 31 -27
39 -27 25 0 39 -27 32 -60 -5 -24 -19 -38 -61 -61 -58 -33 -94 -71 -94 -99 0
-10 16 -32 36 -50 34 -29 41 -31 103 -29 36 1 73 -1 82 -5 11 -5 32 5 63 29
36 27 52 34 72 29 19 -5 43 2 90 27 54 29 66 32 81 21 55 -39 111 -57 183 -59
41 -1 96 -5 121 -9 89 -12 153 29 165 108 8 48 16 53 53 33 17 -8 46 -15 66
-15 20 0 58 -11 85 -25 67 -34 87 -33 104 9 l14 34 64 -19 c47 -15 69 -17 85
-10 18 8 25 7 33 -9 5 -10 10 -30 10 -45 0 -14 8 -37 17 -51 16 -24 15 -29 -2
-81 -21 -62 -23 -116 -4 -139 10 -12 24 -14 66 -8 44 5 66 2 126 -20 40 -15
83 -35 96 -45 l24 -19 -21 -33 c-12 -19 -37 -64 -56 -101 -23 -42 -50 -76 -74
-94 -22 -15 -43 -37 -48 -47 -5 -11 -26 -25 -46 -32 -21 -7 -53 -27 -73 -44
-22 -19 -47 -31 -64 -31 -34 0 -53 -20 -81 -83 -11 -25 -27 -50 -36 -55 -8 -4
-29 -30 -47 -58 -26 -39 -39 -50 -66 -54 -60 -9 -61 -31 -5 -92 58 -64 96
-157 74 -183 -9 -11 -11 -32 -6 -72 5 -45 2 -69 -15 -117 l-22 -61 20 -46 c20
-45 20 -46 1 -69 -23 -28 -17 -69 18 -119 28 -42 24 -48 -60 -96 -73 -42 -87
-53 -109 -85 -33 -47 -9 -128 44 -151 30 -12 69 -72 69 -105 0 -9 -11 -29 -25
-46 -14 -17 -25 -42 -25 -59 0 -24 -18 -67 -90 -219 -5 -10 -29 -17 -70 -22
-39 -4 -90 -20 -136 -42 l-74 -35 -57 20 c-31 10 -64 19 -75 19 -28 0 -22 -36
15 -89 17 -25 37 -55 43 -66 6 -11 33 -35 61 -54 l51 -34 7 -83 c6 -72 11 -89
36 -120 16 -21 32 -49 36 -63 3 -14 16 -37 29 -51 12 -14 24 -41 26 -60 l3
-35 62 3 c56 2 63 0 82 -24 13 -16 21 -41 21 -65 0 -34 -4 -40 -41 -61 -44
-25 -69 -62 -69 -104 0 -27 -67 -137 -127 -208 -18 -22 -36 -55 -39 -75 -4
-20 -20 -62 -35 -95 -33 -69 -30 -81 35 -149 25 -26 46 -55 46 -65 0 -40 33
-111 66 -143 32 -31 40 -34 97 -34 l62 0 -1 -40 c-1 -45 -21 -93 -46 -109 -13
-8 -21 -6 -36 7 -27 25 -48 21 -71 -12 -12 -16 -38 -38 -59 -48 -30 -15 -42
-30 -62 -78 -14 -34 -36 -74 -48 -90 -44 -56 -132 -200 -132 -216 0 -9 -9 -24
-20 -34 -27 -25 -25 -50 10 -114 19 -34 30 -69 30 -95 1 -23 5 -61 11 -86 5
-25 14 -74 20 -110 6 -36 15 -70 20 -76 6 -7 78 -13 197 -16 138 -4 196 -10
222 -21 19 -9 67 -25 107 -37 65 -18 80 -28 155 -99 46 -43 102 -88 126 -100
23 -12 42 -27 42 -34 0 -6 5 -41 10 -77 8 -56 7 -68 -10 -96 -11 -17 -20 -38
-20 -45 0 -8 20 -38 45 -66 40 -45 51 -52 88 -55 l42 -3 0 -86 c0 -65 4 -91
16 -105 9 -11 21 -33 27 -50 13 -39 190 -224 214 -224 9 0 21 7 26 16 8 15 13
14 41 -7 18 -13 41 -37 51 -54 32 -52 73 -83 138 -104 77 -25 128 -17 239 35
71 34 103 67 103 107 0 8 15 34 33 58 18 24 41 65 50 90 22 57 34 69 122 115
39 20 87 52 107 71 31 30 41 34 65 29 59 -15 94 -18 106 -9 6 5 34 18 60 27
34 13 55 29 71 55 13 20 46 54 74 76 27 22 58 52 68 67 16 23 27 28 64 30 25
1 88 3 140 5 52 2 126 3 164 3 44 0 97 8 141 21 l72 21 51 -26 c28 -14 68 -26
88 -26 20 0 52 -10 71 -21 31 -19 44 -21 116 -16 51 4 98 14 123 26 44 22 185
61 218 61 27 0 141 -54 183 -86 18 -13 45 -27 60 -30 33 -7 63 21 103 94 28
52 60 72 127 80 34 4 49 0 66 -15 14 -14 42 -22 81 -26 44 -4 65 -12 85 -31
45 -43 73 -35 127 36 26 35 70 87 96 117 63 70 75 93 98 203 27 121 36 159 45
180 8 19 131 123 190 160 46 29 67 51 86 92 21 45 139 84 289 96 63 6 133 14
155 19 69 15 179 54 198 69 35 31 15 66 -55 95 -21 9 -38 20 -38 25 0 5 22 36
49 70 56 69 86 139 77 176 -8 31 8 73 39 106 13 14 33 46 44 73 13 30 29 51
45 57 47 17 66 46 66 97 0 78 21 103 190 228 41 30 93 61 115 67 46 13 94 46
147 100 21 20 60 49 87 62 56 29 81 58 81 96 0 31 -48 110 -97 162 -30 31 -46
39 -106 49 -46 8 -80 21 -99 37 -54 46 -98 157 -112 287 -4 33 -20 106 -37
163 -36 121 -37 119 52 258 34 54 71 123 81 153 29 81 34 90 99 156 57 58 60
64 74 140 19 103 29 121 85 151 36 19 57 42 91 96 24 39 61 90 82 114 25 28
48 71 67 123 15 44 49 112 75 151 43 65 49 70 83 70 72 1 150 27 197 65 25 21
45 43 45 51 0 7 -16 26 -36 41 -93 71 -90 68 -74 99 8 16 56 68 105 116 95 91
188 148 244 148 21 0 43 11 71 36 29 27 63 43 134 64 52 16 103 33 113 39 44
23 186 43 255 36 68 -6 122 1 212 28 34 10 44 20 70 73 45 87 60 103 171 176
55 37 111 78 124 92 14 14 30 26 37 26 50 0 208 72 231 105 39 57 51 65 101
65 61 0 83 16 137 101 24 37 53 73 64 79 28 14 98 115 106 152 6 24 -2 50 -36
122 -33 69 -43 103 -44 141 l0 50 37 3 c46 4 80 46 82 100 1 35 0 37 -39 42
-55 8 -65 16 -65 53 0 74 -18 94 -68 75 -24 -9 -36 -8 -74 10 -53 26 -72 27
-157 6 -49 -12 -76 -25 -103 -52 -21 -20 -38 -42 -38 -48 0 -26 -29 -44 -56
-34 -14 6 -44 10 -68 10 -29 0 -56 9 -87 28 -66 42 -143 72 -184 72 -45 0
-109 -32 -131 -65 -25 -38 -48 -31 -85 28 -65 100 -194 131 -306 74 -29 -15
-64 -27 -78 -27 -51 0 -108 65 -75 85 23 14 9 71 -31 130 -71 105 -79 109
-144 78 l-36 -17 -54 61 -54 60 -85 5 c-75 4 -93 9 -165 46 -129 68 -178 56
-167 -41 3 -28 7 -63 8 -77 3 -23 0 -25 -87 -36 -67 -10 -98 -10 -122 -2 -29
10 -34 9 -52 -13 l-21 -24 -31 38 c-36 43 -47 44 -153 18 -71 -18 -81 -18
-121 -4 -27 9 -54 28 -70 49 -16 21 -49 45 -80 59 -48 21 -67 23 -169 21 -101
-2 -118 -5 -131 -22 -15 -18 -16 -18 -40 11 -38 45 -82 125 -94 173 -12 45
-37 56 -61 27 -9 -11 -32 -13 -113 -9 -89 5 -115 11 -204 47 l-101 40 -11 44
c-13 50 -39 58 -65 18 -21 -32 -56 -34 -56 -2 0 12 7 44 15 71 22 72 19 108
-10 136 -22 21 -29 22 -104 16 -75 -7 -80 -6 -103 17 -12 13 -38 27 -56 31
-19 3 -45 15 -59 26 -14 11 -35 20 -47 20 -25 0 -169 -46 -209 -67 -17 -8 -51
-13 -85 -12 -31 2 -71 -1 -88 -5 -26 -6 -40 0 -96 38 -77 53 -201 96 -276 96
-37 0 -68 8 -105 26 -45 23 -55 25 -82 15 -68 -28 -114 -38 -126 -30 -8 5 -56
9 -107 9 -69 0 -99 -4 -117 -16 -38 -25 -69 -11 -106 45 -36 56 -71 75 -138
74 -55 -1 -151 -36 -176 -63 -22 -25 -44 -25 -90 -3 -36 17 -38 17 -77 -6 -31
-17 -64 -24 -146 -31 -59 -4 -132 -14 -162 -20 -91 -21 -216 -7 -329 37 -83
31 -110 37 -195 40 -72 2 -110 8 -140 22 -65 31 -110 41 -277 61 -86 10 -165
24 -176 30 -10 7 -29 28 -41 46 -28 42 -80 69 -116 60 -15 -4 -53 -31 -85 -60
-76 -70 -116 -80 -273 -65 -81 8 -199 7 -414 -1 l-300 -11 -77 25 c-95 31
-103 36 -203 107 -44 33 -85 59 -90 59 -5 0 -36 14 -68 31 -64 34 -147 45
-216 30z"/>
<path d="M12290 6414 c-19 -9 -64 -20 -100 -25 -75 -11 -95 -27 -108 -86 -14
-61 0 -74 83 -84 49 -6 79 -16 108 -36 49 -35 174 -109 206 -123 33 -15 55 -5
85 38 34 50 33 80 -6 132 -39 51 -43 57 -57 93 -11 28 -15 31 -62 41 -14 3
-40 19 -57 36 -36 34 -43 35 -92 14z"/>
<path d="M11318 6245 c-90 -33 -308 -207 -308 -245 0 -5 -33 -26 -72 -46 -83
-41 -107 -60 -119 -91 -20 -54 59 -192 110 -193 15 0 43 18 78 51 41 39 59 50
80 47 36 -4 51 -52 36 -111 -6 -22 -9 -45 -7 -51 9 -23 47 -37 112 -42 99 -8
126 -20 157 -64 40 -58 65 -54 145 21 36 34 83 76 106 95 62 51 97 124 97 198
-1 52 2 63 26 85 15 14 35 31 45 36 26 15 23 58 -8 105 -31 47 -64 52 -132 19
-38 -18 -47 -19 -84 -8 -57 17 -74 45 -65 107 8 59 -1 68 -82 87 -70 17 -69
17 -115 0z"/>
<path d="M10130 5334 c-35 -32 -44 -36 -58 -26 -33 24 -61 35 -75 29 -7 -3
-30 -36 -50 -75 -29 -54 -44 -72 -69 -82 -75 -27 -84 -50 -45 -108 13 -20 26
-56 30 -80 7 -60 22 -75 66 -67 52 10 164 112 180 165 6 22 32 63 57 91 25 28
55 71 67 95 21 44 21 44 2 63 -38 36 -60 35 -105 -5z"/>
</g>
</svg>
